<?xml version="1.0" encoding="UTF-8" standalone="no"?>
<!-- Created with Inkscape (http://www.inkscape.org/) -->

<svg
   version="1.1"
   id="svg590"
   width="642"
   height="388"
   viewBox="0 0 642 388"
   sodipodi:docname="svg_logo.svg"
   inkscape:version="1.2.1 (9c6d41e410, 2022-07-14)"
   xmlns:inkscape="http://www.inkscape.org/namespaces/inkscape"
   xmlns:sodipodi="http://sodipodi.sourceforge.net/DTD/sodipodi-0.dtd"
   xmlns="http://www.w3.org/2000/svg"
   xmlns:svg="http://www.w3.org/2000/svg">
  <defs
     id="defs594" />
  <sodipodi:namedview
     id="namedview592"
     pagecolor="#ffffff"
     bordercolor="#000000"
     borderopacity="0.25"
     inkscape:showpageshadow="2"
     inkscape:pageopacity="0.0"
     inkscape:pagecheckerboard="0"
     inkscape:deskcolor="#d1d1d1"
     showgrid="false"
     inkscape:zoom="0.74173315"
     inkscape:cx="832.50964"
     inkscape:cy="491.41662"
     inkscape:window-width="1920"
     inkscape:window-height="1001"
     inkscape:window-x="-9"
     inkscape:window-y="-9"
     inkscape:window-maximized="1"
     inkscape:current-layer="g596" />
  <g
     inkscape:groupmode="layer"
     inkscape:label="Image"
     id="g596">
    <path
       style="fill:#000000"
       d="m 398.5,353.61269 c 6.17687,-2.92508 10.68932,-7.57388 13.69878,-14.11269 2.28062,-4.95523 2.30395,-5.41375 2.60602,-51.21335 0.21099,-31.99142 -0.0306,-46.84013 -0.78519,-48.25 C 413.05037,238.2256 411.95875,238 404.16482,238 c -5.48375,0 -9.21403,0.44921 -9.96482,1.2 -0.89709,0.89709 -1.2,12.34462 -1.2,45.35078 0,28.55405 -0.3749,45.22622 -1.06127,47.19513 -1.65997,4.76181 -9.35025,5.14869 -11.54263,0.58069 C 379.91394,331.32197 379.29007,309.8 379.00972,284.5 L 378.5,238.5 370,238.20495 c -4.675,-0.16228 -9.5125,-0.0412 -10.75,0.26905 l -2.25,0.5641 v 47.30281 c 0,54.2432 -0.0544,53.82368 7.99761,61.64331 5.93692,5.76556 11.45878,7.8511 21.00239,7.93237 5.90546,0.0503 8.56303,-0.43953 12.5,-2.3039 z m 133.86917,0.35037 c 6.60015,-2.46943 12.51784,-8.50243 15.22505,-15.52171 1.75335,-4.54613 1.905,-7.94068 1.89605,-42.44135 -0.009,-32.95438 -0.21599,-38.0171 -1.71127,-41.76594 -2.45744,-6.1611 -6.43944,-10.95075 -11.63604,-13.99617 -3.80464,-2.22967 -6.01661,-2.72521 -13.59351,-3.0453 -11.47166,-0.48462 -18.55596,1.85846 -24.0689,7.96062 C 491.3529,253.04267 491.5,251.96063 491.5,296.5 v 40 l 2.97438,5.37025 c 1.6359,2.95364 4.42251,6.4748 6.19246,7.8248 8.31436,6.34168 21.43783,8.10846 31.70233,4.26801 z m -15.13371,-19.00892 c -1.2455,-0.49525 -2.708,-2.06683 -3.25,-3.4924 -1.37173,-3.60792 -1.30258,-66.49744 0.0771,-70.12629 1.32535,-3.48593 2.58235,-4.30077 6.66439,-4.32014 2.4126,-0.0115 3.67439,0.66693 5,2.68815 1.57357,2.3993 1.80986,5.97138 2.10026,31.75 0.17996,15.9756 0.0365,31.39738 -0.31872,34.27062 -0.9537,7.7133 -4.98301,11.33353 -10.27303,9.23006 z M 72.5,296.5 v -58 h -10 -10 l -0.258318,56.88751 c -0.190835,42.0263 0.04478,57.25273 0.90192,58.28552 0.873041,1.05195 3.412314,1.32733 10.258318,1.11249 L 72.5,354.5 Z m 59.19098,57.25 C 132.13594,353.0625 132.725,339.9 133,324.5 l 0.5,-28 4.235,27.87947 c 2.32926,15.33371 4.74686,28.49621 5.37245,29.25 1.22543,1.47656 14.45709,1.96197 16.49736,0.60522 1.21305,-0.80666 2.98433,-7.93725 3.90859,-15.73469 0.32597,-2.75 0.78066,-5.9 1.01043,-7 0.22977,-1.1 0.66402,-3.75402 0.96501,-5.89782 0.30099,-2.14381 0.74751,-4.84381 0.99226,-6 0.24475,-1.1562 0.70175,-4.25799 1.01555,-6.89287 0.77586,-6.51454 2.40854,-14.94783 3.01041,-15.54971 0.27112,-0.27111 0.49294,12.12697 0.49294,27.55129 0,22.84727 0.26001,28.26001 1.40308,29.20867 0.88985,0.73851 4.4563,1.05764 9.75,0.87245 L 190.5,354.5 v -58 -58 l -13.76399,-0.27831 c -13.52707,-0.27352 -13.7786,-0.2391 -14.61323,2 -0.46709,1.25307 -2.75904,16.22831 -5.09321,33.27831 -3.80154,27.76831 -4.98438,34.89195 -5.0505,30.41667 -0.084,-5.68713 -9.00423,-63.24206 -9.98473,-64.42349 -1.60828,-1.93786 -25.89349,-2.19403 -27.79434,-0.29318 -0.90462,0.90462 -1.2,14.91746 -1.2,56.92857 0,49.32901 0.18045,55.90903 1.57143,57.3 1.99623,1.99623 15.86704,2.25666 17.11955,0.32143 z m 136.8457,-0.4172 c 6.90548,-2.35293 13.8453,-9.51262 15.8881,-16.39146 2.05469,-6.91888 2.11001,-24.7775 0.0978,-31.55352 -0.81261,-2.73635 -3.11835,-6.89218 -5.12388,-9.23519 l -3.64641,-4.26 2.00691,-2.19632 c 4.94399,-5.41065 5.7408,-8.49142 5.7408,-22.19631 0,-14.82361 -1.30549,-18.72121 -8.1643,-24.37482 -5.28956,-4.3601 -11.16453,-5.301 -30.8357,-4.93848 l -17,0.3133 -0.25832,56.88751 c -0.187,41.18273 0.0539,57.26366 0.87245,58.25 1.78916,2.15581 33.91199,1.91366 40.42255,-0.30471 z m -19.04856,-19.50317 c -0.30004,-0.78188 -0.42011,-7.92591 -0.26682,-15.87562 L 249.5,303.5 l 4.5,0.35524 c 8.63287,0.68151 9.5,2.26607 9.5,17.35998 0,11.51948 -0.80679,12.81958 -8.40851,13.55001 -3.78636,0.36382 -5.19499,0.12862 -5.60337,-0.9356 z m -0.054,-51.14077 c -0.27673,-0.72113 -0.3751,-6.45863 -0.21862,-12.75 L 249.5,258.5 h 4.97047 c 4.29788,0 5.14161,0.33829 6.23526,2.5 1.55804,3.07965 1.6785,13.59934 0.20416,17.82865 -0.8282,2.37577 -1.96946,3.37134 -4.75,4.14365 -4.83703,1.3435 -6.12226,1.28934 -6.72579,-0.28344 z M 313,354.01518 c 1.19085,-0.75754 1.50739,-3.38213 1.53585,-12.73469 0.0197,-6.47927 0.13221,-17.09386 0.25,-23.58799 L 315,305.885 l 4.15003,0.3075 c 3.18794,0.23621 4.63686,0.9616 6.25,3.12898 1.93524,2.60016 2.12642,4.36516 2.43711,22.5 0.41321,24.11843 -0.0813,23.17852 12.1954,23.17852 10.22755,0 11.76666,-0.94469 10.11963,-6.2113 -0.56566,-1.80878 -1.0663,-11.3887 -1.11253,-21.2887 -0.0916,-19.61109 -1.12306,-25.13993 -5.58931,-29.95909 C 342.10265,296.08674 341,294.6755 341,294.40483 c 0,-0.27066 1.13929,-1.70998 2.53175,-3.19847 3.64812,-3.89972 5.50406,-11.42594 5.62242,-22.80013 0.13338,-12.81744 -1.33495,-17.63684 -7.15418,-23.48154 C 335.94199,238.84017 332.19197,238 311.09236,238 c -16.13483,0 -17.07915,0.1068 -18.1187,2.04922 -1.76303,3.29426 -0.90763,111.12286 0.89878,113.29811 1.07247,1.29144 3.14892,1.64932 9.5,1.63736 4.47016,-0.008 8.80256,-0.4447 9.62756,-0.96951 z M 314.66078,285.25 c -0.2515,-0.4125 -0.21339,-6.7125 0.0847,-14 L 315.28742,258 h 4.23385 c 4.97067,0 5.92674,0.92212 7.52113,7.25403 1.67935,6.66929 0.46042,15.33408 -2.58565,18.38014 -2.31031,2.31032 -8.72722,3.36878 -9.79595,1.61583 z M 442,354.02217 c 1.26285,-0.79746 1.57905,-5.87651 2,-32.12558 l 0.5,-31.17836 7.84936,30.39088 c 4.31715,16.71499 8.5494,31.17839 9.40499,32.14089 1.25598,1.41291 3.2112,1.74705 10.15064,1.73469 4.72725,-0.008 9.27001,-0.44184 10.09501,-0.96316 1.29847,-0.82049 1.53689,-8.41191 1.77458,-56.50449 0.18645,-37.72269 -0.0656,-56.1923 -0.78518,-57.53685 C 482.06183,238.24702 480.87807,238 473.5,238 c -7.51538,0 -8.55042,0.22569 -9.54328,2.08087 -0.75687,1.41422 -1.00842,9.72829 -0.78518,25.9516 0.18065,13.1289 0.0634,23.55501 -0.26061,23.16913 -0.32399,-0.38588 -3.19975,-11.0516 -6.39057,-23.7016 -3.19082,-12.65 -6.42361,-24.0125 -7.18398,-25.25 -1.30174,-2.11859 -2.04111,-2.25 -12.65943,-2.25 -7.43763,0 -11.6855,0.40855 -12.47695,1.2 -0.90489,0.90489 -1.2,15.0334 -1.2,57.45031 0,52.51676 0.11615,56.31796 1.75,57.26959 2.2116,1.28814 15.24964,1.36544 17.25,0.10227 z m 137.42857,-0.5936 C 580.57235,352.28479 581,349.85498 581,344.5 c 0,-9.82658 -0.72931,-10.5 -11.37143,-10.5 -5.06667,0 -8.68968,0.46111 -9.42857,1.2 -0.7358,0.7358 -1.2,4.33333 -1.2,9.3 0,4.96667 0.4642,8.5642 1.2,9.3 1.88769,1.88769 17.26652,1.59062 19.22857,-0.37143 z m -1.73412,-29.78969 c 1.45754,-1.45754 2.23589,-14.20369 2.91218,-47.68908 0.50972,-25.2383 0.38121,-34.10401 -0.51873,-35.78556 -1.12987,-2.11119 -1.73491,-2.21949 -10.89211,-1.9498 L 559.5,238.5 l -0.31001,24 c -0.40617,31.44502 1.24562,59.47309 3.61427,61.32782 1.80093,1.4102 13.43873,1.26252 14.89019,-0.18894 z M 99.343423,275.75 c 1.541627,-2.49628 5.265267,-33.7214 4.316247,-36.19451 -0.83816,-2.18421 -20.433698,-2.30794 -21.267807,-0.13429 -0.914818,2.38398 3.561455,36.92982 4.894982,37.77724 0.667235,0.42401 3.340281,0.77783 5.940102,0.78625 3.833118,0.0124 4.989696,-0.41015 6.116476,-2.23469 z M 328.85445,143.35801 c 6.89844,-2.22794 13.24692,-8.46199 16.26772,-15.97447 2.33235,-5.80037 2.36588,-6.38539 2.37181,-41.38354 0.007,-42.278151 -0.2679,-43.904355 -8.88368,-52.520136 -6.2249,-6.224899 -11.77686,-7.942541 -23.7229,-7.339294 -9.2649,0.467857 -15.96705,3.630633 -20.61955,9.730468 -6.05619,7.940199 -6.39557,10.810673 -6.06474,51.296173 L 288.5,123.5 l 2.59339,5.5 c 3.28877,6.97476 7.91794,11.47533 14.34798,13.9494 6.34173,2.44008 16.57026,2.6186 23.41308,0.40861 z M 315.31537,123.9837 c -1.20154,-0.47899 -2.66404,-1.76669 -3.25,-2.86155 C 311.37087,119.82445 311,107.17627 311,84.788248 c 0,-29.464843 0.22113,-34.658938 1.5567,-36.565742 2.068,-2.952482 7.41637,-3.014885 10.03831,-0.117122 1.79771,1.986815 1.90499,4.096701 1.90499,37.464581 0,30.129025 -0.22187,35.570435 -1.5,36.787295 -2.10958,2.00845 -5.12526,2.64672 -7.68463,1.62644 z M 71.418213,143.39301 C 72.795068,142.86466 73,139.90103 73,120.51801 c 0,-12.2474 0.285088,-23.693451 0.633529,-25.435656 l 0.633529,-3.167646 6.616471,0.292646 L 87.5,92.5 l 0.268163,24.41942 c 0.175327,15.96555 0.650459,24.88006 1.372445,25.75 1.686492,2.0321 18.211192,1.83593 20.287962,-0.24085 C 110.8196,141.03754 111,134.45053 111,85.051016 c 0,-46.56794 -0.23136,-55.998136 -1.39758,-56.966019 -0.90865,-0.75411 -4.8444,-1.05933 -11.250004,-0.872444 L 88.5,27.5 88,50 87.5,72.5 80.75,72.79569 c -3.7125,0.162629 -6.840751,0.162629 -6.951669,0 C 73.687413,72.63306 73.349913,62.375 73.048331,50 L 72.5,27.5 h -10 -10 l -0.258271,57.435872 c -0.203637,45.286318 0.0079,57.604848 1,58.234688 1.472205,0.93463 15.861652,1.11074 18.176484,0.22245 z m 100.010357,-0.96444 c 2.04004,-2.04004 2.24013,-15.62871 0.2544,-17.27671 -0.77396,-0.64234 -7.06215,-1.20825 -15.25,-1.37245 L 142.5,123.5 V 108 92.5 l 9.5,-0.248903 c 14.97761,-0.392418 14.12778,0.225746 13.78851,-10.029815 L 165.5,73.5 154,73 142.5,72.5 142.22012,59.75 141.94025,47 h 14.49469 C 173.30838,47 173,47.190687 173,36.756871 173,26.43388 174.40892,26.921878 145.5,27.231899 L 120.5,27.5 120.24168,84.387514 c -0.187,41.182726 0.0538,57.263656 0.87245,58.249996 0.89645,1.08016 6.06371,1.36249 24.93689,1.36249 20.3086,0 24.03699,-0.23087 25.37755,-1.57143 z m 57.49099,0.16835 c 0.73851,-0.88985 1.05764,-4.4563 0.87245,-9.75 L 229.5,124.5 l -14,-0.5 -14,-0.5 -0.25999,-46.909576 c -0.18468,-33.320494 -0.59052,-47.307841 -1.40099,-48.28439 -0.85579,-1.031163 -3.54039,-1.303729 -10.74001,-1.090425 L 179.5,27.5 179.24168,84.387514 c -0.187,41.182726 0.0539,57.263656 0.87245,58.249996 1.68333,2.0283 47.11977,1.99051 48.80543,-0.0406 z m 55.14618,0.3679 c 1.65805,-0.88736 1.93207,-2.13687 1.91895,-8.75 -0.008,-4.24315 -0.364,-8.2636 -0.79018,-8.93433 -0.53132,-0.83622 -5.00529,-1.30767 -14.23469,-1.5 L 257.5,123.5 257.24001,76.590424 c -0.18468,-33.320494 -0.59052,-47.307841 -1.40099,-48.28439 -0.85579,-1.031163 -3.54039,-1.303729 -10.74001,-1.090425 L 235.5,27.5 235.24168,84.387514 c -0.187,41.182726 0.0539,57.263656 0.87245,58.249996 0.89293,1.07592 5.85116,1.36249 23.57406,1.36249 13.55838,0 23.20903,-0.40981 24.37755,-1.03518 z M 376.8,142.8 c 0.7358,-0.7358 1.2,-4.33333 1.2,-9.3 0,-4.96667 -0.4642,-8.5642 -1.2,-9.3 -1.4924,-1.4924 -16.14592,-1.62042 -18.86574,-0.16482 -1.6771,0.89756 -1.93426,2.15398 -1.93426,9.45031 0,6.95945 0.30272,8.59145 1.75,9.43441 2.49959,1.45588 17.56907,1.36103 19.05,-0.1199 z m -2.49878,-30.05 c 2.46508,-1.83035 3.86105,-25.08972 3.49601,-58.25 L 377.5,27.5 369,27.204946 c -4.675,-0.16228 -9.5125,-0.04121 -10.75,0.269052 l -2.25,0.564106 0.002,25.230948 c 0.002,33.485107 1.534,57.782348 3.74991,59.480948 0.89688,0.6875 4.15867,1.25 7.24843,1.25 3.08976,0 6.37531,-0.5625 7.30122,-1.25 z"
       id="path600"
       sodipodi:nodetypes="sssssssssscsscsssssscssssscsssssssssssccccsssccsscsssssssssssscccssssssssssssscsssscssssscsssssscssssssssscsssssssssssssscssscssssssscsscssssssssssssssssssssssssscssssssssssscsssscsssssssssssssscccsssssscccssscccsssssscccsscccccssscscsssscccssscscssscsscssscssssssssssscscssccsscc" />
  </g>
</svg>
